<svg xmlns="http://www.w3.org/2000/svg" xmlns:xlink="http://www.w3.org/1999/xlink" width="500" zoomAndPan="magnify" viewBox="0 0 375 374.999991" height="500" preserveAspectRatio="xMidYMid meet" version="1.0"><defs><clipPath id="09a7d5800c"><path d="M 55.078125 0 L 319.828125 0 L 319.828125 375 L 55.078125 375 Z M 55.078125 0 " clip-rule="nonzero"/></clipPath></defs><g clip-path="url(#09a7d5800c)"><path fill="#e6e6e6" d="M 308.882812 374.535156 L 65.90625 374.535156 C 59.925781 374.535156 55.078125 369.6875 55.078125 363.703125 L 55.078125 11.296875 C 55.078125 5.3125 59.925781 0.464844 65.90625 0.464844 L 308.878906 0.464844 C 314.859375 0.464844 319.707031 5.3125 319.707031 11.296875 L 319.707031 363.699219 C 319.710938 369.6875 314.863281 374.535156 308.882812 374.535156 Z M 308.882812 374.535156 " fill-opacity="1" fill-rule="nonzero"/></g><path fill="#c1272d" d="M 305.835938 364.582031 L 68.953125 364.582031 C 66.789062 364.582031 65.027344 362.824219 65.027344 360.660156 L 65.027344 14.339844 C 65.027344 12.175781 66.789062 10.417969 68.953125 10.417969 L 305.835938 10.417969 C 308 10.417969 309.761719 12.175781 309.761719 14.339844 L 309.761719 360.660156 C 309.761719 362.824219 308 364.582031 305.835938 364.582031 Z M 68.953125 12.628906 C 68.007812 12.628906 67.238281 13.394531 67.238281 14.339844 L 67.238281 360.660156 C 67.238281 361.605469 68.007812 362.371094 68.953125 362.371094 L 305.835938 362.371094 C 306.78125 362.371094 307.550781 361.605469 307.550781 360.660156 L 307.550781 14.339844 C 307.550781 13.394531 306.78125 12.628906 305.835938 12.628906 Z M 269.699219 156.503906 L 260.949219 171.65625 L 269.699219 186.808594 L 278.445312 171.65625 Z M 269.699219 188.191406 L 260.949219 203.347656 L 269.699219 218.503906 L 278.445312 203.347656 Z M 269.699219 219.882812 L 260.949219 235.035156 L 269.699219 250.191406 L 278.445312 235.03125 Z M 269.699219 124.808594 L 260.949219 139.964844 L 269.699219 155.117188 L 278.445312 139.964844 Z M 260.152344 266.722656 L 251.410156 251.570312 L 242.664062 266.722656 L 251.410156 281.878906 Z M 278.445312 266.722656 L 269.699219 251.570312 L 260.949219 266.722656 L 269.699219 281.878906 Z M 251.011719 250.875 L 242.265625 235.722656 L 233.519531 250.875 L 242.265625 266.03125 Z M 269.699219 93.117188 L 260.949219 108.277344 L 269.699219 123.429688 L 278.445312 108.277344 Z M 178.652344 92.433594 L 187.390625 107.585938 L 196.136719 92.433594 L 187.390625 77.277344 Z M 269.296875 250.875 L 260.550781 235.722656 L 251.8125 250.875 L 260.550781 266.03125 Z M 215.230469 92.433594 L 223.96875 107.585938 L 232.71875 92.433594 L 223.96875 77.277344 Z M 269.699219 61.429688 L 260.949219 76.585938 L 269.699219 91.738281 L 278.445312 76.585938 Z M 196.9375 92.433594 L 205.683594 107.585938 L 214.425781 92.433594 L 205.683594 77.277344 Z M 187.789062 76.589844 L 196.539062 91.742188 L 205.285156 76.589844 L 196.539062 61.433594 Z M 206.082031 76.589844 L 214.832031 91.742188 L 223.570312 76.589844 L 214.832031 61.433594 Z M 251.808594 92.433594 L 260.546875 107.585938 L 269.296875 92.433594 L 260.546875 77.277344 Z M 242.660156 76.589844 L 251.410156 91.742188 L 260.148438 76.589844 L 251.410156 61.433594 Z M 224.367188 76.589844 L 233.117188 91.742188 L 241.863281 76.589844 L 233.117188 61.433594 Z M 233.515625 92.433594 L 242.261719 107.585938 L 251.011719 92.433594 L 242.261719 77.277344 Z M 122.984375 250.875 L 114.234375 235.722656 L 105.488281 250.875 L 114.234375 266.03125 Z M 141.269531 250.875 L 132.527344 235.722656 L 123.78125 250.875 L 132.527344 266.03125 Z M 241.867188 266.722656 L 233.117188 251.570312 L 224.371094 266.722656 L 233.117188 281.878906 Z M 159.5625 250.875 L 150.8125 235.722656 L 142.066406 250.875 L 150.8125 266.03125 Z M 169.503906 76.589844 L 178.246094 91.742188 L 186.992188 76.589844 L 178.246094 61.433594 Z M 150.414062 266.722656 L 141.667969 251.570312 L 132.925781 266.722656 L 141.667969 281.878906 Z M 105.089844 281.878906 L 113.835938 266.722656 L 105.089844 251.570312 L 96.347656 266.722656 Z M 105.089844 218.503906 L 113.835938 203.347656 L 105.089844 188.191406 L 96.347656 203.347656 Z M 105.089844 186.808594 L 113.835938 171.652344 L 105.089844 156.5 L 96.347656 171.652344 Z M 105.089844 250.191406 L 113.835938 235.035156 L 105.089844 219.882812 L 96.347656 235.035156 Z M 132.128906 266.722656 L 123.382812 251.570312 L 114.632812 266.722656 L 123.382812 281.878906 Z M 168.707031 266.722656 L 159.960938 251.570312 L 151.214844 266.722656 L 159.960938 281.878906 Z M 223.574219 266.722656 L 214.832031 251.570312 L 206.085938 266.722656 L 214.832031 281.878906 Z M 214.425781 250.875 L 205.6875 235.722656 L 196.9375 250.875 L 205.6875 266.03125 Z M 232.71875 250.875 L 223.972656 235.722656 L 215.230469 250.875 L 223.972656 266.03125 Z M 205.289062 266.722656 L 196.539062 251.570312 L 187.792969 266.722656 L 196.539062 281.878906 Z M 196.140625 250.875 L 187.394531 235.722656 L 178.652344 250.875 L 187.394531 266.03125 Z M 177.847656 250.875 L 169.109375 235.722656 L 160.359375 250.875 L 169.109375 266.03125 Z M 186.996094 266.722656 L 178.246094 251.570312 L 169.507812 266.722656 L 178.246094 281.878906 Z M 159.5625 282.5625 L 150.8125 267.410156 L 142.066406 282.566406 L 150.8125 297.722656 Z M 205.289062 298.417969 L 196.539062 283.261719 L 187.792969 298.417969 L 196.539062 313.570312 Z M 214.425781 282.5625 L 205.6875 267.410156 L 196.9375 282.566406 L 205.6875 297.722656 Z M 223.574219 298.417969 L 214.832031 283.261719 L 206.085938 298.417969 L 214.832031 313.570312 Z M 196.140625 282.5625 L 187.394531 267.410156 L 178.652344 282.566406 L 187.394531 297.722656 Z M 177.847656 282.5625 L 169.109375 267.410156 L 160.359375 282.566406 L 169.109375 297.722656 Z M 160.359375 92.433594 L 169.109375 107.585938 L 177.847656 92.433594 L 169.109375 77.277344 Z M 168.707031 298.417969 L 159.960938 283.261719 L 151.214844 298.417969 L 159.960938 313.570312 Z M 232.71875 282.5625 L 223.972656 267.410156 L 215.230469 282.566406 L 223.972656 297.722656 Z M 186.996094 298.417969 L 178.246094 283.261719 L 169.507812 298.417969 L 178.246094 313.570312 Z M 150.414062 298.417969 L 141.667969 283.261719 L 132.925781 298.417969 L 141.667969 313.570312 Z M 278.84375 204.035156 L 270.097656 219.1875 L 278.84375 234.347656 L 287.59375 219.1875 Z M 278.84375 235.726562 L 270.097656 250.878906 L 278.84375 266.035156 L 287.59375 250.878906 Z M 278.84375 172.347656 L 270.09375 187.5 L 278.839844 202.65625 L 287.59375 187.5 Z M 287.59375 282.5625 L 278.84375 267.410156 L 270.097656 282.566406 L 278.84375 297.722656 Z M 278.445312 298.417969 L 269.699219 283.261719 L 260.949219 298.417969 L 269.699219 313.570312 Z M 241.867188 298.417969 L 233.117188 283.261719 L 224.371094 298.417969 L 233.117188 313.570312 Z M 251.011719 282.5625 L 242.265625 267.410156 L 233.519531 282.566406 L 242.265625 297.722656 Z M 260.152344 298.417969 L 251.410156 283.261719 L 242.664062 298.417969 L 251.410156 313.570312 Z M 269.296875 282.5625 L 260.550781 267.410156 L 251.8125 282.566406 L 260.550781 297.722656 Z M 105.089844 155.117188 L 113.835938 139.964844 L 105.089844 124.808594 L 96.347656 139.964844 Z M 114.632812 76.589844 L 123.382812 91.742188 L 132.128906 76.589844 L 123.382812 61.433594 Z M 105.488281 92.433594 L 114.234375 107.585938 L 122.984375 92.433594 L 114.234375 77.277344 Z M 96.347656 76.589844 L 105.089844 91.742188 L 113.835938 76.589844 L 105.089844 61.433594 Z M 87.203125 92.433594 L 95.949219 107.585938 L 104.691406 92.433594 L 95.949219 77.277344 Z M 132.925781 76.589844 L 141.667969 91.742188 L 150.414062 76.589844 L 141.667969 61.433594 Z M 151.214844 76.589844 L 159.960938 91.742188 L 168.707031 76.589844 L 159.960938 61.433594 Z M 142.066406 92.433594 L 150.8125 107.585938 L 159.5625 92.433594 L 150.8125 77.277344 Z M 95.949219 139.273438 L 104.691406 124.121094 L 95.949219 108.960938 L 87.203125 124.121094 Z M 123.78125 92.433594 L 132.527344 107.585938 L 141.269531 92.433594 L 132.527344 77.277344 Z M 132.128906 298.417969 L 123.382812 283.261719 L 114.632812 298.417969 L 123.382812 313.570312 Z M 113.835938 298.417969 L 105.089844 283.261719 L 96.347656 298.417969 L 105.089844 313.570312 Z M 122.984375 282.5625 L 114.234375 267.410156 L 105.488281 282.566406 L 114.234375 297.722656 Z M 141.269531 282.5625 L 132.527344 267.410156 L 123.78125 282.566406 L 132.527344 297.722656 Z M 95.949219 170.960938 L 104.691406 155.808594 L 95.949219 140.65625 L 87.203125 155.808594 Z M 95.949219 297.722656 L 104.691406 282.566406 L 95.949219 267.414062 L 87.203125 282.566406 Z M 95.949219 266.035156 L 104.691406 250.878906 L 95.949219 235.726562 L 87.203125 250.878906 Z M 95.949219 202.648438 L 104.691406 187.5 L 95.949219 172.347656 L 87.203125 187.5 Z M 95.949219 234.347656 L 104.691406 219.1875 L 95.949219 204.035156 L 87.203125 219.1875 Z M 233.515625 124.121094 L 242.261719 139.273438 L 251.011719 124.121094 L 242.261719 108.960938 Z M 251.410156 124.808594 L 242.664062 139.964844 L 251.410156 155.117188 L 260.152344 139.964844 Z M 233.515625 155.8125 L 242.261719 170.964844 L 251.011719 155.8125 L 242.261719 140.660156 Z M 224.367188 139.964844 L 233.117188 155.117188 L 241.863281 139.964844 L 233.117188 124.808594 Z M 215.230469 155.8125 L 223.96875 170.964844 L 232.71875 155.8125 L 223.96875 140.660156 Z M 251.011719 187.5 L 242.265625 172.347656 L 233.515625 187.5 L 242.261719 202.65625 Z M 206.082031 139.964844 L 214.832031 155.117188 L 223.570312 139.964844 L 214.832031 124.808594 Z M 251.410156 156.503906 L 242.664062 171.65625 L 251.410156 186.808594 L 260.152344 171.65625 Z M 241.867188 203.34375 L 233.117188 188.191406 L 224.371094 203.34375 L 233.117188 218.5 Z M 260.152344 203.34375 L 251.410156 188.191406 L 242.664062 203.34375 L 251.410156 218.5 Z M 132.925781 139.964844 L 141.667969 155.117188 L 150.414062 139.964844 L 141.667969 124.808594 Z M 151.214844 139.964844 L 159.960938 155.117188 L 168.707031 139.964844 L 159.960938 124.808594 Z M 241.867188 171.652344 L 233.117188 156.5 L 224.371094 171.652344 L 233.117188 186.808594 Z M 196.9375 155.8125 L 205.683594 170.964844 L 214.425781 155.8125 L 205.683594 140.652344 Z M 123.78125 155.8125 L 132.527344 170.964844 L 141.269531 155.8125 L 132.527344 140.652344 Z M 142.066406 155.8125 L 150.8125 170.964844 L 159.5625 155.8125 L 150.8125 140.652344 Z M 187.789062 139.964844 L 196.539062 155.117188 L 205.285156 139.964844 L 196.539062 124.808594 Z M 178.652344 155.8125 L 187.390625 170.964844 L 196.136719 155.8125 L 187.390625 140.652344 Z M 160.359375 155.8125 L 169.109375 170.964844 L 177.847656 155.8125 L 169.109375 140.652344 Z M 169.503906 139.964844 L 178.246094 155.117188 L 186.992188 139.964844 L 178.246094 124.808594 Z M 150.414062 171.652344 L 141.667969 156.5 L 132.925781 171.652344 L 141.667969 186.808594 Z M 114.632812 139.964844 L 123.382812 155.117188 L 132.128906 139.964844 L 123.382812 124.808594 Z M 159.5625 187.5 L 150.8125 172.347656 L 142.066406 187.5 L 150.8125 202.652344 Z M 150.414062 203.34375 L 141.667969 188.191406 L 132.925781 203.34375 L 141.667969 218.5 Z M 168.707031 171.652344 L 159.960938 156.5 L 151.214844 171.652344 L 159.960938 186.808594 Z M 123.382812 218.503906 L 132.128906 203.347656 L 123.382812 188.191406 L 114.632812 203.347656 Z M 168.707031 203.34375 L 159.960938 188.191406 L 151.214844 203.34375 L 159.960938 218.5 Z M 141.269531 187.5 L 132.527344 172.347656 L 123.78125 187.5 L 132.527344 202.65625 Z M 295.574219 15.210938 L 280.398438 15.210938 L 287.992188 28.363281 Z M 123.382812 156.503906 L 114.632812 171.65625 L 123.382812 186.808594 L 132.128906 171.65625 Z M 177.847656 187.5 L 169.109375 172.347656 L 160.359375 187.5 L 169.109375 202.652344 Z M 214.425781 187.5 L 205.6875 172.347656 L 196.9375 187.5 L 205.683594 202.652344 Z M 205.289062 203.34375 L 196.539062 188.191406 L 187.792969 203.34375 L 196.539062 218.5 Z M 223.574219 203.34375 L 214.832031 188.191406 L 206.085938 203.34375 L 214.832031 218.5 Z M 223.574219 171.652344 L 214.832031 156.5 L 206.085938 171.652344 L 214.832031 186.808594 Z M 96.347656 108.277344 L 105.089844 123.429688 L 113.835938 108.277344 L 105.089844 93.121094 Z M 186.996094 171.652344 L 178.246094 156.5 L 169.503906 171.652344 L 178.246094 186.808594 Z M 196.140625 187.5 L 187.394531 172.347656 L 178.652344 187.5 L 187.390625 202.65625 Z M 186.996094 203.34375 L 178.246094 188.191406 L 169.503906 203.34375 L 178.246094 218.5 Z M 205.289062 171.652344 L 196.539062 156.5 L 187.792969 171.652344 L 196.539062 186.808594 Z M 206.082031 108.277344 L 214.832031 123.429688 L 223.570312 108.277344 L 214.832031 93.121094 Z M 260.550781 172.347656 L 251.808594 187.5 L 260.546875 202.652344 L 269.296875 187.5 Z M 187.789062 108.277344 L 196.539062 123.429688 L 205.285156 108.277344 L 196.539062 93.121094 Z M 224.367188 108.277344 L 233.117188 123.429688 L 241.863281 108.277344 L 233.117188 93.121094 Z M 196.9375 124.121094 L 205.683594 139.273438 L 214.425781 124.121094 L 205.683594 108.960938 Z M 260.550781 140.652344 L 251.8125 155.808594 L 260.550781 170.960938 L 269.296875 155.808594 Z M 260.550781 108.960938 L 251.8125 124.121094 L 260.550781 139.273438 L 269.296875 124.121094 Z M 242.660156 108.277344 L 251.410156 123.429688 L 260.148438 108.277344 L 251.410156 93.121094 Z M 278.84375 140.652344 L 270.097656 155.808594 L 278.84375 170.960938 L 287.59375 155.808594 Z M 215.230469 124.121094 L 223.96875 139.273438 L 232.71875 124.121094 L 223.96875 108.960938 Z M 132.925781 108.277344 L 141.667969 123.429688 L 150.414062 108.277344 L 141.667969 93.121094 Z M 123.78125 124.121094 L 132.527344 139.273438 L 141.269531 124.121094 L 132.527344 108.960938 Z M 114.632812 108.277344 L 123.382812 123.429688 L 132.128906 108.277344 L 123.382812 93.121094 Z M 105.488281 124.121094 L 114.234375 139.273438 L 122.984375 124.121094 L 114.234375 108.960938 Z M 151.214844 108.277344 L 159.960938 123.429688 L 168.707031 108.277344 L 159.960938 93.121094 Z M 142.066406 124.121094 L 150.8125 139.273438 L 159.5625 124.121094 L 150.8125 108.960938 Z M 169.503906 108.277344 L 178.246094 123.429688 L 186.992188 108.277344 L 178.246094 93.121094 Z M 160.359375 124.121094 L 169.109375 139.273438 L 177.847656 124.121094 L 169.109375 108.960938 Z M 178.652344 124.121094 L 187.390625 139.273438 L 196.136719 124.121094 L 187.390625 108.960938 Z M 196.140625 219.1875 L 187.394531 204.035156 L 178.652344 219.1875 L 187.394531 234.347656 Z M 159.5625 219.1875 L 150.8125 204.035156 L 142.066406 219.1875 L 150.8125 234.347656 Z M 186.996094 235.03125 L 178.246094 219.878906 L 169.503906 235.03125 L 178.246094 250.191406 Z M 150.414062 235.03125 L 141.667969 219.878906 L 132.925781 235.03125 L 141.667969 250.191406 Z M 177.847656 219.1875 L 169.109375 204.035156 L 160.359375 219.1875 L 169.109375 234.347656 Z M 168.707031 235.03125 L 159.960938 219.878906 L 151.214844 235.03125 L 159.960938 250.191406 Z M 114.234375 234.347656 L 122.984375 219.1875 L 114.234375 204.035156 L 105.488281 219.1875 Z M 114.234375 202.648438 L 122.984375 187.5 L 114.234375 172.347656 L 105.488281 187.5 Z M 132.128906 235.03125 L 123.382812 219.878906 L 114.632812 235.03125 L 123.382812 250.191406 Z M 141.269531 219.1875 L 132.527344 204.035156 L 123.78125 219.1875 L 132.527344 234.347656 Z M 232.71875 219.1875 L 223.972656 204.035156 L 215.230469 219.1875 L 223.972656 234.347656 Z M 251.011719 219.1875 L 242.265625 204.035156 L 233.519531 219.1875 L 242.265625 234.347656 Z M 105.488281 155.8125 L 114.234375 170.964844 L 122.984375 155.8125 L 114.234375 140.652344 Z M 269.296875 219.1875 L 260.550781 204.035156 L 251.8125 219.1875 L 260.550781 234.347656 Z M 260.152344 235.03125 L 251.410156 219.878906 L 242.664062 235.03125 L 251.410156 250.191406 Z M 241.867188 235.03125 L 233.117188 219.878906 L 224.371094 235.03125 L 233.117188 250.191406 Z M 205.289062 235.03125 L 196.539062 219.878906 L 187.792969 235.03125 L 196.539062 250.191406 Z M 223.574219 235.03125 L 214.832031 219.878906 L 206.085938 235.03125 L 214.832031 250.191406 Z M 214.425781 219.1875 L 205.6875 204.035156 L 196.9375 219.1875 L 205.6875 234.347656 Z M 232.71875 187.5 L 223.972656 172.347656 L 215.230469 187.5 L 223.96875 202.652344 Z M 69.8125 285.523438 L 69.8125 311.3125 L 77.257812 298.417969 Z M 86.40625 282.5625 L 77.65625 267.410156 L 69.8125 280.992188 L 69.8125 284.132812 L 77.65625 297.722656 Z M 86.40625 314.261719 L 77.65625 299.101562 L 69.8125 312.691406 L 69.8125 315.828125 L 77.65625 329.410156 Z M 69.8125 253.824219 L 69.8125 279.617188 L 77.257812 266.722656 Z M 69.8125 190.449219 L 69.8125 216.238281 L 77.257812 203.34375 Z M 86.40625 250.875 L 77.65625 235.722656 L 69.8125 249.304688 L 69.8125 252.445312 L 77.65625 266.03125 Z M 86.40625 219.1875 L 77.65625 204.035156 L 69.8125 217.617188 L 69.8125 220.757812 L 77.65625 234.347656 Z M 69.8125 317.210938 L 69.8125 343.003906 L 77.257812 330.105469 Z M 278.84375 108.960938 L 270.097656 124.121094 L 278.84375 139.273438 L 287.59375 124.121094 Z M 114.234375 330.792969 L 105.488281 345.953125 L 113.476562 359.789062 L 114.996094 359.789062 L 122.984375 345.953125 Z M 132.527344 330.792969 L 123.78125 345.953125 L 131.769531 359.789062 L 133.289062 359.789062 L 141.269531 345.953125 Z M 115.792969 359.789062 L 130.972656 359.789062 L 123.382812 346.636719 Z M 150.8125 330.792969 L 142.066406 345.953125 L 150.054688 359.789062 L 151.574219 359.789062 L 159.566406 345.953125 Z M 86.40625 187.5 L 77.65625 172.347656 L 69.8125 185.929688 L 69.8125 189.070312 L 77.65625 202.65625 Z M 79.210938 359.789062 L 94.394531 359.789062 L 86.804688 346.636719 Z M 69.8125 358.824219 C 69.8125 359.363281 70.246094 359.789062 70.777344 359.789062 L 76.101562 359.789062 L 69.8125 348.898438 Z M 77.65625 330.792969 L 69.8125 344.382812 L 69.8125 347.519531 L 76.894531 359.789062 L 78.414062 359.789062 L 86.40625 345.953125 Z M 97.503906 359.789062 L 112.679688 359.789062 L 105.089844 346.636719 Z M 95.949219 330.792969 L 87.203125 345.953125 L 95.191406 359.789062 L 96.710938 359.789062 L 104.691406 345.953125 Z M 134.085938 359.789062 L 149.257812 359.789062 L 141.667969 346.636719 Z M 94.394531 15.210938 L 79.210938 15.210938 L 86.804688 28.363281 Z M 69.8125 158.757812 L 69.8125 184.550781 L 77.257812 171.652344 Z M 112.679688 15.210938 L 97.503906 15.210938 L 105.089844 28.363281 Z M 70.78125 15.210938 C 70.25 15.210938 69.816406 15.636719 69.816406 16.175781 L 69.816406 26.097656 L 76.105469 15.207031 L 70.78125 15.207031 Z M 95.949219 44.207031 L 104.691406 29.046875 L 96.710938 15.210938 L 95.191406 15.210938 L 87.199219 29.046875 Z M 114.234375 44.207031 L 122.984375 29.046875 L 114.992188 15.210938 L 113.476562 15.210938 L 105.484375 29.046875 Z M 132.527344 44.207031 L 141.269531 29.046875 L 133.285156 15.210938 L 131.769531 15.210938 L 123.777344 29.046875 Z M 149.257812 15.210938 L 134.085938 15.210938 L 141.667969 28.363281 Z M 130.972656 15.210938 L 115.792969 15.210938 L 123.382812 28.363281 Z M 86.40625 29.046875 L 78.417969 15.210938 L 76.898438 15.210938 L 69.816406 27.480469 L 69.816406 30.617188 L 77.660156 44.207031 Z M 69.8125 95.382812 L 69.8125 121.175781 L 77.257812 108.277344 Z M 86.40625 124.121094 L 77.65625 108.960938 L 69.8125 122.550781 L 69.8125 125.691406 L 77.65625 139.273438 Z M 69.8125 127.070312 L 69.8125 152.859375 L 77.257812 139.964844 Z M 86.40625 155.8125 L 77.65625 140.652344 L 69.8125 154.242188 L 69.8125 157.382812 L 77.65625 170.964844 Z M 69.8125 31.996094 L 69.8125 57.789062 L 77.257812 44.894531 Z M 86.40625 60.742188 L 77.65625 45.585938 L 69.8125 59.167969 L 69.8125 62.308594 L 77.65625 75.898438 Z M 69.8125 63.695312 L 69.8125 89.484375 L 77.257812 76.589844 Z M 86.40625 92.433594 L 77.65625 77.277344 L 69.8125 90.863281 L 69.8125 94.003906 L 77.65625 107.585938 Z M 304.96875 121.171875 L 304.96875 95.382812 L 297.527344 108.277344 Z M 304.96875 216.238281 L 304.96875 190.449219 L 297.527344 203.34375 Z M 288.386719 187.5 L 297.128906 202.652344 L 304.96875 189.070312 L 304.96875 185.929688 L 297.128906 172.347656 Z M 288.386719 219.1875 L 297.128906 234.347656 L 304.96875 220.761719 L 304.96875 217.621094 L 297.128906 204.039062 Z M 304.96875 184.550781 L 304.96875 158.757812 L 297.527344 171.652344 Z M 304.96875 247.929688 L 304.96875 222.136719 L 297.527344 235.03125 Z M 288.386719 155.8125 L 297.128906 170.964844 L 304.96875 157.382812 L 304.96875 154.242188 L 297.128906 140.652344 Z M 304.96875 279.617188 L 304.96875 253.824219 L 297.527344 266.722656 Z M 288.386719 282.5625 L 297.128906 297.722656 L 304.96875 284.132812 L 304.96875 280.992188 L 297.128906 267.410156 Z M 288.386719 250.875 L 297.128906 266.03125 L 304.96875 252.445312 L 304.96875 249.304688 L 297.128906 235.722656 Z M 304.96875 152.859375 L 304.96875 127.070312 L 297.527344 139.96875 Z M 288.386719 60.742188 L 297.128906 75.898438 L 304.96875 62.316406 L 304.96875 59.175781 L 297.128906 45.585938 Z M 304.96875 311.3125 L 304.96875 285.523438 L 297.527344 298.417969 Z M 304.96875 57.789062 L 304.96875 31.996094 L 297.527344 44.894531 Z M 304.003906 15.210938 L 298.683594 15.210938 L 304.96875 26.101562 L 304.96875 16.175781 C 304.96875 15.636719 304.535156 15.210938 304.003906 15.210938 Z M 296.371094 15.210938 L 288.386719 29.046875 L 297.128906 44.207031 L 304.96875 30.617188 L 304.96875 27.480469 L 297.886719 15.210938 Z M 150.8125 44.207031 L 159.5625 29.046875 L 151.574219 15.210938 L 150.054688 15.210938 L 142.0625 29.046875 Z M 304.96875 89.484375 L 304.96875 63.695312 L 297.527344 76.589844 Z M 288.386719 124.121094 L 297.128906 139.273438 L 304.96875 125.691406 L 304.96875 122.554688 L 297.128906 108.964844 Z M 288.386719 92.433594 L 297.128906 107.585938 L 304.96875 94.003906 L 304.96875 90.863281 L 297.128906 77.277344 Z M 262.105469 359.789062 L 277.285156 359.789062 L 269.695312 346.636719 Z M 242.265625 330.792969 L 233.519531 345.953125 L 241.507812 359.789062 L 243.027344 359.789062 L 251.015625 345.953125 Z M 288.386719 314.261719 L 297.128906 329.414062 L 304.96875 315.832031 L 304.96875 312.691406 L 297.128906 299.101562 Z M 207.242188 359.789062 L 222.417969 359.789062 L 214.832031 346.636719 Z M 225.527344 359.789062 L 240.710938 359.789062 L 233.117188 346.636719 Z M 205.6875 330.792969 L 196.9375 345.953125 L 204.929688 359.789062 L 206.445312 359.789062 L 214.429688 345.953125 Z M 188.949219 359.789062 L 204.132812 359.789062 L 196.539062 346.636719 Z M 170.664062 359.789062 L 185.835938 359.789062 L 178.246094 346.636719 Z M 169.109375 330.792969 L 160.359375 345.953125 L 168.351562 359.789062 L 169.867188 359.789062 L 177.851562 345.953125 Z M 187.394531 330.792969 L 178.652344 345.953125 L 186.636719 359.789062 L 188.152344 359.789062 L 196.144531 345.953125 Z M 223.972656 330.792969 L 215.230469 345.953125 L 223.214844 359.789062 L 224.734375 359.789062 L 232.722656 345.953125 Z M 288.386719 345.949219 L 296.371094 359.789062 L 297.886719 359.789062 L 304.96875 347.519531 L 304.96875 344.378906 L 297.128906 330.789062 Z M 304.003906 359.789062 C 304.535156 359.789062 304.96875 359.359375 304.96875 358.824219 L 304.96875 348.898438 L 298.683594 359.789062 Z M 280.398438 359.789062 L 295.570312 359.789062 L 287.988281 346.636719 Z M 243.820312 359.789062 L 258.992188 359.789062 L 251.410156 346.636719 Z M 304.96875 343 L 304.96875 317.207031 L 297.527344 330.105469 Z M 260.550781 330.792969 L 251.8125 345.953125 L 259.792969 359.789062 L 261.3125 359.789062 L 269.300781 345.953125 Z M 152.371094 359.789062 L 167.550781 359.789062 L 159.960938 346.636719 Z M 278.84375 330.792969 L 270.097656 345.953125 L 278.085938 359.789062 L 279.605469 359.789062 L 287.59375 345.953125 Z M 69.8125 222.136719 L 69.8125 247.929688 L 77.257812 235.03125 Z M 86.804688 155.117188 L 95.550781 139.964844 L 86.804688 124.808594 L 78.054688 139.964844 Z M 86.804688 91.738281 L 95.550781 76.585938 L 86.804688 61.429688 L 78.054688 76.585938 Z M 86.804688 123.429688 L 95.550781 108.277344 L 86.804688 93.117188 L 78.054688 108.277344 Z M 86.804688 186.808594 L 95.550781 171.652344 L 86.804688 156.5 L 78.054688 171.652344 Z M 86.804688 218.503906 L 95.550781 203.347656 L 86.804688 188.191406 L 78.054688 203.347656 Z M 96.347656 44.894531 L 105.089844 60.054688 L 113.835938 44.894531 L 105.089844 29.742188 Z M 78.054688 44.894531 L 86.804688 60.054688 L 95.550781 44.894531 L 86.804688 29.742188 Z M 105.488281 60.742188 L 114.234375 75.898438 L 122.984375 60.742188 L 114.234375 45.585938 Z M 87.203125 60.742188 L 95.949219 75.898438 L 104.691406 60.742188 L 95.949219 45.585938 Z M 113.835938 330.105469 L 105.089844 314.945312 L 96.347656 330.105469 L 105.089844 345.257812 Z M 114.632812 44.894531 L 123.382812 60.054688 L 132.128906 44.894531 L 123.382812 29.742188 Z M 122.984375 314.261719 L 114.234375 299.101562 L 105.488281 314.261719 L 114.234375 329.414062 Z M 132.128906 330.105469 L 123.382812 314.945312 L 114.632812 330.105469 L 123.382812 345.257812 Z M 141.269531 314.261719 L 132.527344 299.101562 L 123.78125 314.261719 L 132.527344 329.414062 Z M 86.804688 250.191406 L 95.550781 235.035156 L 86.804688 219.882812 L 78.054688 235.03125 Z M 104.691406 314.261719 L 95.949219 299.101562 L 87.203125 314.261719 L 95.949219 329.414062 Z M 86.804688 313.566406 L 95.550781 298.414062 L 86.804688 283.257812 L 78.054688 298.414062 Z M 86.804688 281.878906 L 95.550781 266.722656 L 86.804688 251.570312 L 78.054688 266.722656 Z M 86.804688 345.257812 L 95.550781 330.105469 L 86.804688 314.945312 L 78.054688 330.105469 Z M 178.652344 60.742188 L 187.390625 75.898438 L 196.136719 60.742188 L 187.390625 45.585938 Z M 242.660156 44.894531 L 251.410156 60.054688 L 260.148438 44.894531 L 251.410156 29.742188 Z M 224.367188 44.894531 L 233.117188 60.054688 L 241.863281 44.894531 L 233.117188 29.742188 Z M 123.78125 60.742188 L 132.527344 75.898438 L 141.269531 60.738281 L 132.527344 45.585938 Z M 215.230469 60.742188 L 223.96875 75.898438 L 232.71875 60.738281 L 223.96875 45.585938 Z M 251.808594 60.742188 L 260.546875 75.898438 L 269.296875 60.742188 L 260.546875 45.585938 Z M 206.082031 44.894531 L 214.832031 60.054688 L 223.570312 44.894531 L 214.832031 29.742188 Z M 278.84375 77.277344 L 270.097656 92.433594 L 278.84375 107.585938 L 287.59375 92.433594 Z M 278.84375 45.585938 L 270.097656 60.742188 L 278.84375 75.898438 L 287.59375 60.742188 Z M 260.949219 44.894531 L 269.695312 60.054688 L 278.441406 44.894531 L 269.695312 29.742188 Z M 233.515625 60.738281 L 242.261719 75.898438 L 251.011719 60.742188 L 242.261719 45.585938 Z M 142.066406 60.738281 L 150.8125 75.898438 L 159.5625 60.742188 L 150.8125 45.585938 Z M 151.214844 44.894531 L 159.960938 60.054688 L 168.707031 44.894531 L 159.960938 29.742188 Z M 160.359375 60.742188 L 169.109375 75.898438 L 177.847656 60.742188 L 169.109375 45.585938 Z M 132.925781 44.894531 L 141.667969 60.054688 L 150.414062 44.894531 L 141.667969 29.742188 Z M 150.414062 330.105469 L 141.667969 314.945312 L 132.925781 330.105469 L 141.667969 345.257812 Z M 187.789062 44.894531 L 196.539062 60.054688 L 205.285156 44.894531 L 196.539062 29.742188 Z M 196.9375 60.742188 L 205.683594 75.898438 L 214.425781 60.742188 L 205.683594 45.585938 Z M 169.503906 44.894531 L 178.246094 60.054688 L 186.992188 44.894531 L 178.246094 29.742188 Z M 186.996094 330.105469 L 178.246094 314.945312 L 169.507812 330.105469 L 178.246094 345.257812 Z M 258.996094 15.210938 L 243.820312 15.210938 L 251.410156 28.363281 Z M 159.5625 314.261719 L 150.8125 299.101562 L 142.066406 314.261719 L 150.8125 329.414062 Z M 260.550781 44.207031 L 269.296875 29.046875 L 261.308594 15.210938 L 259.789062 15.210938 L 251.808594 29.046875 Z M 287.992188 29.742188 L 279.242188 44.894531 L 287.992188 60.054688 L 296.730469 44.894531 Z M 278.84375 44.207031 L 287.59375 29.046875 L 279.601562 15.210938 L 278.082031 15.210938 L 270.09375 29.046875 Z M 287.992188 156.503906 L 279.242188 171.65625 L 287.992188 186.808594 L 296.730469 171.65625 Z M 287.992188 124.808594 L 279.242188 139.964844 L 287.992188 155.117188 L 296.730469 139.964844 Z M 287.992188 93.117188 L 279.242188 108.277344 L 287.992188 123.429688 L 296.730469 108.277344 Z M 287.992188 61.429688 L 279.242188 76.585938 L 287.992188 91.738281 L 296.730469 76.585938 Z M 169.109375 44.207031 L 177.847656 29.046875 L 169.867188 15.210938 L 168.347656 15.210938 L 160.355469 29.046875 Z M 185.835938 15.210938 L 170.664062 15.210938 L 178.246094 28.363281 Z M 187.394531 44.207031 L 196.140625 29.046875 L 188.152344 15.210938 L 186.632812 15.210938 L 178.652344 29.046875 Z M 204.132812 15.210938 L 188.949219 15.210938 L 196.539062 28.363281 Z M 287.992188 188.191406 L 279.242188 203.347656 L 287.992188 218.503906 L 296.730469 203.347656 Z M 240.710938 15.210938 L 225.527344 15.210938 L 233.117188 28.363281 Z M 242.265625 44.207031 L 251.011719 29.046875 L 243.023438 15.210938 L 241.503906 15.210938 L 233.515625 29.046875 Z M 223.972656 44.207031 L 232.71875 29.046875 L 224.730469 15.210938 L 223.210938 15.210938 L 215.230469 29.046875 Z M 222.417969 15.210938 L 207.242188 15.210938 L 214.832031 28.363281 Z M 205.6875 44.207031 L 214.425781 29.046875 L 206.445312 15.210938 L 204.925781 15.210938 L 196.9375 29.046875 Z M 277.289062 15.210938 L 262.105469 15.210938 L 269.699219 28.363281 Z M 214.425781 314.261719 L 205.6875 299.101562 L 196.9375 314.261719 L 205.6875 329.414062 Z M 223.574219 330.105469 L 214.832031 314.945312 L 206.085938 330.105469 L 214.832031 345.257812 Z M 205.289062 330.105469 L 196.539062 314.945312 L 187.792969 330.105469 L 196.539062 345.257812 Z M 241.867188 330.105469 L 233.117188 314.945312 L 224.371094 330.105469 L 233.117188 345.257812 Z M 232.71875 314.261719 L 223.972656 299.101562 L 215.230469 314.261719 L 223.972656 329.414062 Z M 196.140625 314.261719 L 187.394531 299.101562 L 178.652344 314.261719 L 187.394531 329.414062 Z M 177.847656 314.261719 L 169.109375 299.101562 L 160.359375 314.261719 L 169.109375 329.414062 Z M 168.707031 330.105469 L 159.960938 314.945312 L 151.214844 330.105469 L 159.960938 345.257812 Z M 167.550781 15.210938 L 152.371094 15.210938 L 159.960938 28.363281 Z M 251.011719 314.261719 L 242.265625 299.101562 L 233.519531 314.261719 L 242.265625 329.414062 Z M 287.992188 283.257812 L 279.242188 298.414062 L 287.992188 313.566406 L 296.730469 298.414062 Z M 287.992188 219.882812 L 279.242188 235.035156 L 287.992188 250.191406 L 296.730469 235.035156 Z M 296.730469 330.105469 L 287.992188 314.945312 L 279.242188 330.105469 L 287.992188 345.257812 Z M 287.992188 251.570312 L 279.242188 266.722656 L 287.992188 281.878906 L 296.730469 266.722656 Z M 287.59375 314.261719 L 278.84375 299.101562 L 270.097656 314.261719 L 278.84375 329.414062 Z M 260.152344 330.105469 L 251.410156 314.945312 L 242.664062 330.105469 L 251.410156 345.257812 Z M 269.296875 314.261719 L 260.550781 299.101562 L 251.8125 314.261719 L 260.550781 329.414062 Z M 278.445312 330.105469 L 269.699219 314.945312 L 260.949219 330.105469 L 269.699219 345.257812 Z M 278.445312 330.105469 " fill-opacity="1" fill-rule="nonzero"/></svg>